<svg width="353" height="356" viewBox="0 0 353 356" fill="none" xmlns="http://www.w3.org/2000/svg">
<path fill-rule="evenodd" clip-rule="evenodd" d="M7.75555 150.762C8.5347 152.275 9.49598 153.711 10.6799 155.065C19.1927 164.796 30.241 162.577 45.9324 162.577C60.3026 162.577 74.6728 162.577 89.0444 162.577C119.206 162.577 140.371 161.968 161.7 176.604C177.494 187.443 185.581 203.436 189.568 221.947C189.368 227.187 189.712 232.584 189.712 237.044C189.712 248.123 189.227 323.774 189.972 328.921C192.125 343.783 203.081 354.157 217.007 354.954C222.866 355.289 229.335 354.954 235.318 354.954L308.555 354.952C321.323 354.952 335.393 356.597 344.79 345.899C350.441 339.465 352.07 333.89 352.739 327.558C353.287 322.36 352.802 245.024 352.802 235.683C352.802 222.96 354.778 209.046 343.781 199.316C337.37 193.643 331.817 192.008 325.507 191.338C320.326 190.787 243.27 191.276 233.96 191.276L225.582 191.347C213.805 189.716 202.852 186.244 192.264 178.882C158.139 155.156 161.768 116.935 161.822 80.534C161.844 66.1136 161.835 51.6902 161.815 37.2683C161.791 20.515 158.499 12.269 151.566 8.27358L151.336 8.06468C145.062 2.51412 139.625 0.912477 133.449 0.256738C128.378 -0.282941 52.9563 0.195818 43.8451 0.195818L25.9232 0.349571C19.6293 1.40717 15.2276 3.01897 10.2766 7.29868C10.1797 7.38283 9.39624 8.05452 9.36155 8.08788L8.79633 8.78716C8.76742 8.82488 8.71538 8.94817 8.66623 9.02071C6.81449 11.8265 5.51496 11.3042 2.6282 18.0139C-0.631506 25.5854 0.535035 36.8751 0.535035 44.9921C0.535035 55.8379 0.0594513 129.883 0.789452 134.92C1.68858 141.129 4.15903 146.537 7.7541 150.759L7.75555 150.762Z" fill="url(#paint0_linear_1092_75)"/>
<path fill-rule="evenodd" clip-rule="evenodd" d="M8.30883 200.793C6.46287 203.627 5.16766 203.099 2.28813 209.874C-0.960011 217.519 0.202218 228.918 0.202218 237.113C0.202218 248.063 -0.271921 322.822 0.455188 327.908C2.55412 342.595 13.2483 352.848 26.8393 353.634C32.555 353.965 38.8691 353.634 44.7077 353.634L116.181 353.633C128.643 353.633 142.373 355.258 151.545 344.687C157.06 338.33 158.65 332.82 159.302 326.563C159.837 321.425 159.363 245.002 159.363 235.768C159.364 223.196 161.291 209.446 150.561 199.83C144.304 194.226 138.884 192.61 132.726 191.947C127.669 191.403 52.4688 191.884 43.3836 191.884L25.5152 192.039C19.2401 193.106 14.8514 194.733 9.91483 199.055C9.81798 199.139 9.03595 199.818 9.0027 199.853L8.43749 200.56C8.40858 200.597 8.35654 200.721 8.30883 200.795V200.793Z" fill="#009788"/>
<path fill-rule="evenodd" clip-rule="evenodd" d="M246.675 25.5188C204.995 33.2861 181.901 70.1337 188.737 106.935C195.114 141.264 227.56 171.593 270.671 163.633C304.8 157.331 334.453 123.085 326.585 82.2954C322.744 62.3882 312.08 47.7994 300.413 39.0035C286.861 28.7859 267.872 21.5699 246.675 25.5203V25.5188Z" fill="#006D5B"/>
<path fill-rule="evenodd" clip-rule="evenodd" d="M248.18 25.5188C206.5 33.2861 183.406 70.1337 190.242 106.935C196.618 141.264 229.065 171.593 272.176 163.633C306.305 157.331 335.957 123.085 328.089 82.2954C324.249 62.3882 313.585 47.7994 301.918 39.0035C288.366 28.7859 269.377 21.5699 248.18 25.5203V25.5188Z" fill="#009788"/>
<defs>
<linearGradient id="paint0_linear_1092_75" x1="176.666" y1="0" x2="176.666" y2="355.103" gradientUnits="userSpaceOnUse">
<stop stop-color="#0033FE"/>
</linearGradient>
</defs>
</svg>
